solid "window_4<stl unit=M>"
   facet normal 0 -1 0
      outer loop
         vertex 9.39999961853027 -0.699999988079071 0.800000011920929
         vertex 9.39999961853027 -0.699999988079071 2.20000004768372
         vertex 7.59999990463257 -0.699999988079071 0.800000011920929
      endloop
   endfacet
   facet normal 0 -1 0
      outer loop
         vertex 7.59999990463257 -0.699999988079071 0.800000011920929
         vertex 9.39999961853027 -0.699999988079071 2.20000004768372
         vertex 7.59999990463257 -0.699999988079071 2.20000004768372
      endloop
   endfacet
endsolid
