solid "window_3<stl unit=M>"
   facet normal 0 -1 0
      outer loop
         vertex 7.30000019073486 -0.699999988079071 0.800000011920929
         vertex 7.30000019073486 -0.699999988079071 2.20000004768372
         vertex 5.5 -0.699999988079071 0.800000011920929
      endloop
   endfacet
   facet normal 0 -1 0
      outer loop
         vertex 5.5 -0.699999988079071 0.800000011920929
         vertex 7.30000019073486 -0.699999988079071 2.20000004768372
         vertex 5.5 -0.699999988079071 2.20000004768372
      endloop
   endfacet
endsolid
