solid "window_1<stl unit=M>"
   facet normal 0 -1 0
      outer loop
         vertex 1.89999997615814 -0.699999988079071 0.800000011920929
         vertex 1.89999997615814 -0.699999988079071 2.20000004768372
         vertex 0.100000001490116 -0.699999988079071 0.800000011920929
      endloop
   endfacet
   facet normal 0 -1 0
      outer loop
         vertex 0.100000001490116 -0.699999988079071 0.800000011920929
         vertex 1.89999997615814 -0.699999988079071 2.20000004768372
         vertex 0.100000001490116 -0.699999988079071 2.20000004768372
      endloop
   endfacet
endsolid
